<svg version="1.0" xmlns="http://www.w3.org/2000/svg" width="933.333" height="933.333" viewBox="0 0 700 700"><path d="M329 .6c-1.9.2-8.7.9-15 1.5-85.7 8.1-169.1 51.2-226.9 117.4C39.8 173.7 11.2 237.8 2.3 310c-2.4 20.1-2.4 59.9 0 80 8.9 72.2 37.5 136.3 84.8 190.5 57 65.3 135.2 106.4 222.9 117.2 20.1 2.4 59.9 2.4 80 0 87.7-10.8 165.9-51.9 222.9-117.2 47.3-54.2 75.9-118.3 84.8-190.5 2.4-20.1 2.4-59.9 0-80-9.7-78.7-42.8-148-97.6-204.3-55.8-57.4-129-93.4-209.6-103.3C378.3 1 336.7-.3 329 .6zm143.6 150.5c7.5 2.8 16.3 8.9 20.7 14.2 5.2 6.4 9.8 16.6 11 24.7 1.1 6.7 1.2 6.8 4.9 7.9 8.2 2.5 14.7 12.4 14.8 22.3v5.8h32v22h-65v21h65v23h-65v21h65v23h-89V225h9.7l.5-6.9c.4-5.4 1.1-7.8 3.4-11.2 3.2-4.7 8.3-8.6 12.3-9.5 5.4-1.2 5.4-1.2 4.8-6.2-2-17-15-30.9-33.2-35.4-2.7-.7-5.2-1.3-5.3-1.4-.2-.2-.1-1.7.3-3.4.7-3 .9-3.2 4.3-2.5 1.9.4 5.9 1.5 8.8 2.6zm80.2 13.3c-.9 14.1-6.9 23.6-18.5 29.2-4.3 2.1-6.9 2.7-13.1 2.8l-7.7.1.2-6.1c.2-8 1.5-12.8 5.5-19.3 6-9.9 15.4-15 27.7-15.1h6.4l-.5 8.4zm-227.7 116c13.2 30.2 23.9 55.1 23.9 55.3 0 .1-6.2.3-13.7.3h-13.8l-4.5-11.3-4.6-11.2-21.5-.3-21.5-.2-4.5 11.2-4.5 11.3-13.8.3c-7.7.1-13.5-.1-13.2-.6.3-.5 10.6-24.3 23-52.8 12.3-28.5 23-53.2 23.7-54.7l1.3-2.8 9.9.3 10 .3 23.8 54.9zm57.1-32.5l.3 23 21.4-23 21.4-22.9h15.5c9.5 0 15.2.4 15 1-.1.5-7.5 8.5-16.3 17.7-8.9 9.3-19.6 20.5-23.9 25l-7.8 8.2 22.8 25.3c12.5 13.9 24.5 27.2 26.8 29.5l4 4.3H427l-22.2-26-22.3-25.9-.3 25.9-.2 26h-24V225h24l.2 22.9zM205 227.1c6.8 1.6 16.3 6.6 20.4 10.8l3.8 3.8-9.3 7.6c-9.1 7.5-9.4 7.6-11.4 5.9-3.9-3.5-7.3-5.1-13.2-6.3-15.8-3.3-31.2 6.5-36 23-2.3 8.1-1.5 20.9 1.9 28.3 9 19.6 33.8 25 47.3 10.2l3-3.3 9.6 7.2c5.3 4 9.7 7.6 9.9 8.1.4 1.3-8 9.5-12.5 12.1-8.2 4.8-16.2 6.7-27.5 6.7-17.2-.1-30-4.7-40.7-14.6-7.6-7.1-11.4-12.9-14.9-23.1-2.4-6.9-2.8-9.6-2.8-19.5 0-18.3 4.8-30.6 16.3-42 11-10.9 24-15.9 41.6-15.9 5.5 0 12 .4 14.5 1zm-9.1 124c11.5 2 20.3 7.9 23.8 15.8 1.9 4.4 1.9 16.6 0 21.1-1.9 4.3-7.8 10.1-13.2 12.8-2.2 1.2-3.2 2.1-2.3 2.2 2.9 0 10.4 3.7 14 6.9 13.4 11.7 10.2 35.6-5.9 44.3-9.1 5-15.2 5.8-45 5.8H140V350h24.7c13.8 0 27.5.5 31.2 1.1zm70.1 35.6c0 41.5 0 41.5 7.7 48.4 12.2 11 31.7 4.3 35.2-12.2.7-3 1.1-18.6 1.1-38.9v-34h24v38.1c0 35.3-.2 38.7-2 44.9-4.3 14.3-15 24.7-29.5 28.5-7 1.8-20.2 2-27.7.4-12.1-2.6-23.2-10.8-28.3-20.9-4.9-9.7-5.5-15.3-5.5-54.8V350h25v36.7zM405.4 351c13.1 2.1 23.5 9.8 27.1 20 2.2 6.2 2 18.7-.5 25.2-2.8 7.6-12.9 16.8-18.4 16.8-.8 0-1.7.4-2 .8-.3.5 5.5 10.9 12.9 23.1 7.4 12.2 13.5 22.4 13.5 22.7 0 .2-6.5.3-14.6.2l-14.5-.3-11.3-21.5-11.3-21.5h-11.8l-.3 21.7-.2 21.8h-24V350h24.8c13.6 0 27.3.4 30.6 1zm118.9 2.4c9.7 3.3 16.7 7.7 23.4 14.8 9.8 10.4 14.3 23 14.3 39.8 0 16.8-4.5 29.4-14.3 39.8-6.7 7.1-13.6 11.5-23.4 14.9-6.9 2.4-9.3 2.7-20.8 2.8-14.6 0-23.3-2-33.4-7.8-19.9-11.3-30.3-36.3-25.7-61.6 4.1-23.1 20-39.3 43.4-44.6 10.3-2.3 26.6-1.5 36.5 1.9zm-217 184.7c3.8 2 5.7 5.1 5.7 9.9 0 4.3-.3 4.8-7.6 11.7l-7.5 7.2 7.8.3c7.7.3 7.8.3 8.1 3l.3 2.8H288v-2.8c0-2.1 1.2-3.7 5.5-7.1 7.4-5.9 13.5-12.6 13.5-14.9 0-5.8-7-7.5-11.8-2.8-2.8 2.6-2.9 2.6-4.6.7-4.8-5.3 9-11.9 16.7-8zm37.1 2.8c6.1 5.9 7.3 18 2.5 25.8-2.8 4.4-9.7 7.8-14.5 7-13.1-2.2-18-21.9-8.1-32.5 3.2-3.4 5.5-4.2 11.5-3.9 4.4.3 5.8.9 8.6 3.6zm38.6-.4c9.1 8.7 7.4 25.9-3.1 31.3-10.9 5.7-21.8-2.5-21.9-16.5 0-6.3 1.3-9.9 4.8-13.7 3.7-3.9 5.8-4.6 12-4.3 4.1.3 5.9 1 8.2 3.2zm28 14.6v18l-3.2-.3-3.3-.3-.3-14.7-.3-14.6-2.9.8c-2.9.8-4-.1-4-3.5 0-1.4 5.7-3.2 10.8-3.4l3.2-.1v18.1zm-140.2-8.5c2.6 1.7 2.7 2.3.8 4.9-1.2 1.7-1.4 1.7-3.7.2-7.1-5.1-15.6 3.1-11.5 11.1 2.3 4.5 8.2 5.8 11.8 2.5 1.7-1.5 1.9-1.5 3.9.3l2.1 1.9-2.6 2.1c-8.4 7.3-22.6.5-22.6-10.8s12.2-18.1 21.8-12.2zm184 .6l.3 2.8h-13l-.3 10.7-.3 10.8-2.7.3-2.8.3v-28.2l9.3.3 9.2.3.3 2.7z"/><path d="M494 204.1c-9.4 3.9-13 15.9-7.4 24.6 3.6 5.4 7.7 7.7 13.9 7.7 9.5 0 15.7-6 16.3-15.9.3-5 0-6.6-2-9.4-3.6-5.3-7.1-7.4-13-7.8-2.9-.1-6.4.2-7.8.8zm47.3-41.1c-11.1 2.3-18.7 10.5-20.8 22.8-.6 4-.5 4.2 1.7 4.2 7.5 0 17.4-6.3 20.9-13.2 1.8-3.5 4-15 2.8-14.7-.2.1-2.3.5-4.6.9zM283.8 274.7l-6.5 16.8 6.9.3c3.8.2 9.7.2 13.2 0l6.3-.3-6.6-16.8-6.7-16.8-6.6 16.8zM164 382.5V394h10.3c12.4 0 16.8-1.1 20.1-5.1 3.1-3.6 3.5-9.2 1-12.8-2.8-3.9-7.3-5.1-19.9-5.1H164v11.5zm.2 44.7l.3 12.3h14c11.3-.1 14.6-.4 17.2-1.8 6.7-3.6 8.4-12.7 3.5-17.7-4-3.9-8.8-5-23-5h-12.3l.3 12.2zm210-44l.3 12.3 12.3-.2c14.1-.3 18.3-1.6 20.7-6.4 2.2-4.1 1.5-10.3-1.6-13.5-3.2-3.4-7.8-4.4-20.7-4.4h-11.3l.3 12.2zm115.5-8.3c-7.6 3.1-13.2 8.3-16.9 15.9-3.1 6.3-3.3 7.3-3.3 17.2 0 9.9.2 10.9 3.3 17.2 5.8 11.8 15.8 17.8 29.6 17.8 16.6 0 27.8-7.7 32.7-22.7 3.2-9.5 2.2-22.1-2.4-30.9-2.3-4.4-9.2-10.8-14.5-13.5-6.6-3.3-21.5-3.8-28.5-1zM332.4 543.1c-4.1 1.5-6.4 5.7-6.4 11.8 0 9.4 5.3 15.1 11.5 12.3 6-2.7 7.8-15.3 3-21-2.8-3.4-5.1-4.2-8.1-3.1zm37.9.4c-3.6 1.5-5.6 6-5.5 12 .1 11.4 10 16.7 15.3 8.2 2.8-4.5 2.3-14.6-1-18.1-2.9-3.1-5.1-3.6-8.8-2.1z"/></svg>